<svg xmlns="http://www.w3.org/2000/svg" width="512" height="512" viewBox="0 0 512 512">
  <defs>
    <linearGradient id="ring" x1="0" x2="1" y1="0" y2="1">
      <stop offset="0%" stop-color="#2DE2E6"/>
      <stop offset="100%" stop-color="#7CFF6B"/>
    </linearGradient>
    <linearGradient id="glow" x1="0" x2="1" y1="1" y2="0">
      <stop offset="0%" stop-color="#0B1020"/>
      <stop offset="100%" stop-color="#1B263B"/>
    </linearGradient>
  </defs>
  <rect width="512" height="512" rx="96" fill="url(#glow)"/>
  <circle cx="256" cy="256" r="188" fill="none" stroke="url(#ring)" stroke-width="12"/>
  <circle cx="256" cy="256" r="150" fill="none" stroke="#1F2A44" stroke-width="4"/>
  <path d="M168 260 L256 190 L344 260 V356 H168 Z" fill="#122036" stroke="#2DE2E6" stroke-width="8"/>
  <rect x="236" y="294" width="40" height="62" rx="8" fill="#0B1020" stroke="#7CFF6B" stroke-width="6"/>
  <path d="M256 178 V138" stroke="#FFB454" stroke-width="8" stroke-linecap="round"/>
  <circle cx="256" cy="120" r="10" fill="#FFB454"/>
  <path d="M214 144 C234 120 278 120 298 144" fill="none" stroke="#2DE2E6" stroke-width="6" stroke-linecap="round"/>
  <path d="M190 128 C220 92 292 92 322 128" fill="none" stroke="#7CFF6B" stroke-width="6" stroke-linecap="round"/>
  <circle cx="356" cy="152" r="6" fill="#7CFF6B"/>
  <circle cx="144" cy="332" r="5" fill="#2DE2E6"/>
  <circle cx="366" cy="322" r="4" fill="#FFB454"/>
</svg>
